HIERARCHY
ROOT Hips
{
  OFFSET 32.166 99.5335 -33.6873
  CHANNELS 6 Xposition Yposition Zposition Zrotation Xrotation Yrotation
  JOINT RightUpLeg
  {
    OFFSET -8.9458 -8.66707 0.101652
    CHANNELS 3 Zrotation Xrotation Yrotation
    JOINT RightLeg
    {
      OFFSET 0 -44.4227 1.3727
      CHANNELS 3 Zrotation Xrotation Yrotation
      JOINT RightFoot
      {
        OFFSET 0.253549 -42.0924 -1.46059
        CHANNELS 3 Zrotation Xrotation Yrotation
        JOINT RightToes
        {
          OFFSET 0.04 -4.41509 8.4991
          CHANNELS 3 Zrotation Xrotation Yrotation
          End Site
          {
            OFFSET -0.08 -0.137448 9.77979
          }
        }
      }
    }
  }
  JOINT Spine
  {
    OFFSET 0 11.8905 0
    CHANNELS 3 Zrotation Xrotation Yrotation
    JOINT Spine1
    {
      OFFSET 0 25.6574 0.127663
      CHANNELS 3 Zrotation Xrotation Yrotation
      JOINT HEad
      {
        OFFSET 0 8.73416 0.011341
        CHANNELS 3 Zrotation Xrotation Yrotation
        End Site
        {
          OFFSET -0.29 12.7742 2.51395
        }
      }
      JOINT LeftShoulder1
      {
        OFFSET 8.99 -0.362252 -0.22
        CHANNELS 3 Zrotation Xrotation Yrotation
        JOINT LeftArm
        {
          OFFSET 10.2827 -0.00338 0.322123
          CHANNELS 3 Zrotation Xrotation Yrotation
          JOINT LeftForeArm
          {
            OFFSET 32.7669 0.099144 -1.42434
            CHANNELS 3 Zrotation Xrotation Yrotation
            JOINT LeftHand
            {
              OFFSET 27.5643 0.085362 1.02216
              CHANNELS 3 Zrotation Xrotation Yrotation
              End Site
              {
                OFFSET 16.7443 -0.6 1.50291
              }
            }
          }
        }
      }
      JOINT RightShoulder
      {
        OFFSET -8.99 -0.362252 -0.22
        CHANNELS 3 Zrotation Xrotation Yrotation
        JOINT RightArm
        {
          OFFSET -10.2827 -0.00338 0.322123
          CHANNELS 3 Zrotation Xrotation Yrotation
          JOINT RightForeArm
          {
            OFFSET -32.8971 0.099144 -1.42434
            CHANNELS 3 Zrotation Xrotation Yrotation
            JOINT RightHand
            {
              OFFSET -27.4921 0.085362 1.02216
              CHANNELS 3 Zrotation Xrotation Yrotation
              End Site
              {
                OFFSET -16.6312 -0.6 1.50291
              }
            }
          }
        }
      }
    }
  }
  JOINT LeftUpLeg
  {
    OFFSET 8.9458 -8.66707 0.101652
    CHANNELS 3 Zrotation Xrotation Yrotation
    JOINT LeftLeg
    {
      OFFSET 0 -44.4227 1.3727
      CHANNELS 3 Zrotation Xrotation Yrotation
      JOINT LeftFoot
      {
        OFFSET -0.253549 -42.0924 -1.46059
        CHANNELS 3 Zrotation Xrotation Yrotation
        JOINT LeftToes
        {
          OFFSET -0.04 -4.41509 8.4991
          CHANNELS 3 Zrotation Xrotation Yrotation
          End Site
          {
            OFFSET 0.08 -0.047448 9.77979
          }
        }
      }
    }
  }
}
MOTION
Frames:	12
Frame Time:	0.0166667
36.9231 97.8263 158.529 0.684583 0.064241 175.697 3.70801 11.7295 0.32168 3.28433 24.7168 -31.6504 13.9165 -13.9338 1.0895 0.0462048 0.000533964 0.662642 1.13197 2.9233 -0.275758 -0.567126 -4.86854 -0.200838 3.18729 5.18297 7.70469 2.48481e-017 0 7.95139e-016 -80.512 -42.8444 6.15024 -24.0592 13.9263 -11.1095 0.368473 9.90896 -0.00117927 -1.76482 0.774528 7.6874 76.5332 -3.45712 24.6677 26.0737 18.2936 30.1991 -0.369625 9.91382 0.00119887 4.26083 -31.7705 1.40224 -10.2013 28.2934 33.8995 2.73575 -1.95245 0.0775443 5.19271e-011 -1.09527e-010 3.66527e-011 
36.8066 97.8623 156.051 0.212903 0.17096 175.733 2.44599 10.8126 -0.955348 3.72006 28.8759 -32.3735 14.0368 -11.9229 0.862731 -2.49941 2.48843 3.0042 0.874463 2.97017 -0.375149 -1.33911 -4.79138 -0.180009 3.4721 5.37052 8.00059 0 3.97569e-016 -0 -79.6964 -43.9687 7.03325 -23.8438 13.6589 -9.7444 0.368473 9.90896 -0.00117927 -1.78499 0.82157 8.39216 76.7332 -3.97572 23.1665 25.9176 18.4405 31.0047 -0.369625 9.91382 0.00119887 3.86055 -31.1854 2.74148 -10.5756 30.3516 32.0233 3.01181 -2.97229 0.0977952 0.0119574 -4.33041 2.10277 
36.6655 97.8754 153.621 -0.30899 0.219033 175.812 1.14163 9.45881 -2.01719 4.22297 33.4768 -33.3457 14.1997 -9.73179 0.613492 -4.15907 6.04252 4.52095 0.514588 3.04727 -0.455836 -2.11722 -4.74362 -0.158854 3.78027 5.64114 8.15561 -2.23633e-016 1.98785e-016 7.95139e-016 -78.9374 -44.9014 7.83491 -23.623 13.428 -8.59433 0.368473 9.90896 -0.00117927 -1.79032 0.852004 8.83834 76.9378 -4.39884 21.6572 25.8323 18.5552 31.6504 -0.369625 9.91382 0.00119887 3.18226 -30.6292 3.50973 -10.8382 32.2386 30.627 3.41465 -4.00372 0.126562 0.245497 -8.59184 4.32646 
36.4515 97.8194 151.305 -0.993804 0.0909722 176.019 -0.265374 6.91256 -2.61246 4.76476 39.4665 -35.0276 14.5495 -6.77797 0.262322 -2.01339 12.8782 3.14993 -0.152146 3.22377 -0.490286 -2.95383 -4.85045 -0.139201 4.20776 6.26364 7.91687 -1.49089e-016 3.97569e-016 -7.95139e-016 -78.3471 -45.3951 8.46677 -23.4067 13.3232 -8.03138 0.368473 9.90896 -0.00117927 -1.73574 0.835994 8.52924 77.1997 -4.49442 20.1038 25.9766 18.6087 31.8803 -0.369625 9.91382 0.00119887 1.78473 -30.1859 2.80266 -11.0935 33.5987 30.6087 4.30034 -5.07893 0.181066 0.568923 -12.8088 7.05916 
36.211 97.7405 149.102 -1.7006 -0.0956077 176.277 -1.57975 3.72445 -2.68432 5.7828 45.8097 -37.0089 14.7979 -4.08957 -0.0573389 0.806918 20.7382 1.68354 -0.922528 3.41313 -0.486248 -3.71594 -4.854 -0.114213 4.58729 6.76801 7.47794 -8.82107e-016 0 7.95139e-016 -78.1094 -45.4785 8.65139 -23.2321 13.2822 -7.77874 0.368473 9.90896 -0.00117927 -1.69089 0.798202 7.92055 77.5386 -4.52019 18.5812 26.195 18.6061 31.8128 -0.369625 9.91382 0.00119887 0.121485 -29.7744 1.17406 -11.4629 34.6642 31.4859 5.10819 -6.14765 0.243812 1.10691 -16.6029 9.6353 
35.9712 97.6644 147.061 -2.31099 -0.262182 176.574 -2.48212 0.110591 -1.92863 7.0575 52.0265 -38.4412 14.499 -2.51889 -0.241646 -0.305215 29.0376 3.36765 -1.64008 3.53629 -0.43933 -4.27978 -4.44585 -0.0730106 4.74146 6.60053 6.87864 3.88251e-016 -4.96962e-017 -0 -78.4916 -44.9412 8.00499 -23.1768 13.2752 -7.74388 0.368473 9.90896 -0.00117927 -1.72619 0.748802 7.261 77.9844 -4.67865 17.1764 26.3489 18.543 31.5413 -0.369625 9.91382 0.00119887 -1.58182 -29.3765 -1.5062 -12.0944 35.5497 33.3189 5.27364 -7.11367 0.301926 1.65987 -19.7247 11.2115 
35.7413 97.6079 145.089 -2.87508 -0.408574 176.804 -3.0457 -3.70623 -0.83702 8.65094 57.8643 -39.062 14.1217 -2.01236 -0.298206 -2.95657 34.773 5.89492 -2.36978 3.64002 -0.358354 -4.67233 -3.90287 -0.0297403 4.73436 6.27245 6.32857 -1.2921e-015 9.93923e-017 3.97569e-016 -79.2345 -44.229 6.84839 -23.1048 13.2783 -7.75176 0.368473 9.90896 -0.00117927 -1.79497 0.701364 6.67483 78.4716 -4.94015 15.8153 26.5308 18.3993 30.8887 -0.369625 9.91382 0.00119887 -3.12422 -28.8123 -4.11213 -12.7985 36.2041 35.2774 5.15977 -8.14699 0.358398 2.11495 -22.0631 12.3665 
35.5445 97.5876 143.113 -3.41923 -0.502508 176.787 -3.35772 -7.42648 0.212321 9.93643 62.8648 -36.6546 14.093 -3.16652 -0.152551 -4.18464 33.1352 6.79398 -3.16097 3.76505 -0.237129 -4.85574 -3.39626 0.0055077 4.5821 6.13436 6.13929 1.04362e-015 0 -3.97569e-016 -80.208 -43.84 5.31077 -22.8805 13.2384 -7.49403 0.368473 9.90896 -0.00117927 -1.8797 0.680044 6.47586 78.924 -5.33804 14.4807 26.7908 18.1259 29.6472 -0.369625 9.91382 0.00119887 -4.20174 -28.0016 -5.38299 -13.3631 36.7799 36.4526 4.91857 -9.44965 0.412763 2.4147 -23.2397 13.4287 
35.3662 97.63 141.123 -3.90215 -0.561463 176.731 -3.51053 -11.0354 1.2455 10.1517 66.8335 -33.0484 14.1629 -4.88274 0.0612259 -4.73287 29.4355 7.03799 -3.90369 3.8505 -0.116313 -4.89752 -2.93466 0.0317312 4.31068 6.12549 6.03809 -3.97569e-016 -3.97569e-016 -0 -81.3822 -43.3919 3.51187 -22.5772 13.2105 -7.27871 0.368473 9.90896 -0.00117927 -1.9581 0.664336 6.34401 79.3872 -5.8867 13.0878 27.077 17.7586 28.013 -0.369625 9.91382 0.00119887 -5.00495 -26.9292 -5.91236 -13.7051 37.1132 37.0233 4.62074 -10.8292 0.463077 2.57456 -23.7237 14.3254 
35.2001 97.7817 139.088 -4.30778 -0.604369 176.737 -3.71348 -14.4842 2.22597 10.9621 69.5101 -32.2353 14.2596 -6.14464 0.222475 -5.11763 28.1798 7.26137 -4.48134 3.8293 -0.0453617 -4.86637 -2.62521 0.0434736 3.89142 6.37246 5.91472 3.72721e-016 7.95139e-016 3.97569e-016 -82.636 -42.7394 1.67821 -22.1981 13.2431 -7.35978 0.368473 9.90896 -0.00117927 -2.01797 0.645682 6.13601 79.9092 -6.63094 11.5626 27.355 17.3088 26.0355 -0.369625 9.91382 0.00119887 -5.59009 -25.4895 -5.68369 -13.6775 36.9957 36.7372 4.4162 -12.1688 0.507841 2.65255 -23.7806 15.1134 
35.0453 97.9977 137.001 -4.58223 -0.594853 176.938 -3.86173 -17.5831 2.93189 11.912 70.9815 -32.7383 14.2302 -7.3019 0.364078 -4.80898 26.7929 6.89194 -4.96068 3.76075 0.00814704 -4.71997 -2.34356 0.0440364 3.49863 6.6613 5.59452 1.86361e-016 -3.97569e-016 -0 -84.0039 -41.7008 -0.30232 -21.8198 13.3043 -7.59049 0.368473 9.90896 -0.00117927 -2.01454 0.611784 5.6353 80.3766 -7.51165 9.85282 27.6298 16.8139 23.9454 -0.369625 9.91382 0.00119887 -6.11486 -23.7703 -5.29392 -13.3265 36.6388 36.0053 4.21616 -13.444 0.544424 2.67168 -23.6054 15.8518 
34.8967 98.2521 134.835 -4.63849 -0.471722 177.585 -3.98659 -20.0676 2.95144 11.9931 71.1813 -33.6101 13.7811 -8.40762 0.478508 -3.01184 23.7254 5.16204 -5.37206 3.68849 0.0657773 -4.42225 -1.94329 0.035396 3.34828 6.78622 4.76607 -1.14301e-015 -7.95139e-016 7.95139e-016 -85.4664 -39.9202 -2.48549 -21.5267 13.3788 -7.91602 0.368473 9.90896 -0.00117927 -1.89319 0.536826 4.39686 80.7116 -8.43806 7.86798 27.9363 16.3554 22.0234 -0.369625 9.91382 0.00119887 -6.69383 -21.7937 -5.29628 -12.534 36.229 35.0317 3.96275 -14.5965 0.567551 2.71581 -23.4839 16.7497 
